<?xml version="1.0" encoding="UTF-8" standalone="no"?>
<!-- Created with Inkscape (http://www.inkscape.org/) -->

<svg
   xmlns:dc="http://purl.org/dc/elements/1.1/"
   xmlns:cc="http://creativecommons.org/ns#"
   xmlns:rdf="http://www.w3.org/1999/02/22-rdf-syntax-ns#"
   xmlns:svg="http://www.w3.org/2000/svg"
   xmlns="http://www.w3.org/2000/svg"
   xmlns:xlink="http://www.w3.org/1999/xlink"
   xmlns:sodipodi="http://sodipodi.sourceforge.net/DTD/sodipodi-0.dtd"
   xmlns:inkscape="http://www.inkscape.org/namespaces/inkscape"
   width="27"
   height="27"
   id="svg2"
   version="1.1"
   inkscape:version="0.48.2 r9819"
   sodipodi:docname="icon.svg">
  <defs
     id="defs4">
    <linearGradient
       id="linearGradient3847">
      <stop
         id="stop3855"
         offset="0"
         style="stop-color:#d35a4c;stop-opacity:1;" />
      <stop
         style="stop-color:#921a10;stop-opacity:1;"
         offset="1"
         id="stop3851" />
    </linearGradient>
    <linearGradient
       inkscape:collect="always"
       xlink:href="#linearGradient3847"
       id="linearGradient3867"
       x1="-151.01273"
       y1="45.814594"
       x2="-151.01273"
       y2="300.375"
       gradientUnits="userSpaceOnUse"
       gradientTransform="matrix(2.6736842,0,0,1.9348659,657.31156,-82.896022)" />
    <linearGradient
       inkscape:collect="always"
       xlink:href="#linearGradient3847"
       id="linearGradient3913"
       gradientUnits="userSpaceOnUse"
       gradientTransform="matrix(2.6736842,0,0,1.9348659,657.31156,-82.896022)"
       x1="-151.01273"
       y1="45.814594"
       x2="-151.01273"
       y2="300.375" />
  </defs>
  <sodipodi:namedview
     id="base"
     pagecolor="#ffffff"
     bordercolor="#666666"
     borderopacity="1.0"
     inkscape:pageopacity="0.0"
     inkscape:pageshadow="2"
     inkscape:zoom="22.4"
     inkscape:cx="12.111901"
     inkscape:cy="15.655942"
     inkscape:document-units="px"
     inkscape:current-layer="layer2"
     showgrid="false"
     inkscape:window-width="1440"
     inkscape:window-height="852"
     inkscape:window-x="0"
     inkscape:window-y="0"
     inkscape:window-maximized="1"
     fit-margin-top="0"
     fit-margin-left="0"
     fit-margin-right="0"
     fit-margin-bottom="0" />
  <metadata
     id="metadata7">
    <rdf:RDF>
      <cc:Work
         rdf:about="">
        <dc:format>image/svg+xml</dc:format>
        <dc:type
           rdf:resource="http://purl.org/dc/dcmitype/StillImage" />
        <dc:title></dc:title>
      </cc:Work>
    </rdf:RDF>
  </metadata>
  <g
     inkscape:groupmode="layer"
     id="layer3"
     inkscape:label="Layer#1"
     style="display:inline"
     transform="translate(-205.15707,-242.42634)" />
  <g
     inkscape:groupmode="layer"
     id="layer2"
     inkscape:label="Layer"
     style="display:inline"
     transform="translate(-205.15707,-242.42634)">
    <g
       id="g3907"
       transform="matrix(0.05292799,0,0,0.05292799,205.06807,242.38067)">
      <rect
         ry="100"
         y="0.86281174"
         x="1.0101547"
         height="510.12704"
         width="513.15741"
         id="rect3845"
         style="fill:url(#linearGradient3913);fill-opacity:1;stroke:none;display:inline" />
      <g
         transform="matrix(4.4650388,0,0,4.4650388,-351.12359,-537.59095)"
         id="text3067"
         style="font-size:40px;font-style:normal;font-variant:normal;font-weight:normal;font-stretch:normal;line-height:125%;letter-spacing:0px;word-spacing:0px;fill:#ffffff;fill-opacity:1;stroke:none;font-family:Didot;-inkscape-font-specification:Didot">
        <path
           inkscape:connector-curvature="0"
           id="path3072"
           style="font-size:144px;fill:#ffffff"
           d="m 130.688,168.55771 c 0.19195,-1.34397 0.28795,-2.59196 0.288,-3.744 -5e-5,-1.15196 -5e-5,-2.35196 0,-3.6 -5e-5,-3.26396 -0.33605,-5.95195 -1.008,-8.064 -0.57605,-2.11195 -1.44005,-3.79195 -2.592,-5.04 -1.05605,-1.24795 -2.40004,-2.11194 -4.032,-2.592 -1.53604,-0.57594 -3.21604,-0.86394 -5.04,-0.864 -3.26404,6e-5 -5.95203,0.67206 -8.064,2.016 -2.11203,1.24805 -3.79203,2.97605 -5.04,5.184 -1.24802,2.20805 -2.20802,4.75205 -2.88,7.632 -0.57602,2.88004 -0.96002,5.90404 -1.152,9.072 l 29.52,0 m -29.664,2.016 c -2e-5,0.96003 -0.048,1.96803 -0.144,3.024 -2e-5,0.96003 -2e-5,2.20803 0,3.744 -2e-5,3.16802 0.19198,6.48002 0.576,9.936 0.38398,3.45601 1.19998,6.57601 2.448,9.36 1.34397,2.784 3.26397,5.088 5.76,6.912 2.59197,1.824 5.99996,2.736 10.224,2.736 4.22396,0 7.67995,-0.624 10.368,-1.872 2.78395,-1.248 4.94394,-2.736 6.48,-4.464 1.63194,-1.824 2.83194,-3.64799 3.6,-5.472 0.76794,-1.82399 1.34394,-3.31199 1.728,-4.464 l 2.16,0.432 c -0.28806,1.05601 -0.86406,2.59201 -1.728,4.608 -0.76806,1.92 -2.06406,3.888 -3.888,5.904 -1.72806,1.92 -4.12805,3.648 -7.2,5.184 -2.97605,1.43999 -6.86404,2.15999 -11.664,2.16 -4.80003,-1e-5 -9.26403,-0.76801 -13.392,-2.304 -4.03202,-1.536 -7.536019,-3.744 -10.512,-6.624 -2.976013,-2.87999 -5.280011,-6.28799 -6.912,-10.224 -1.632007,-4.03198 -2.448006,-8.49598 -2.448,-13.392 -6e-6,-4.22397 0.815993,-8.30397 2.448,-12.24 1.727989,-4.03196 4.031987,-7.58395 6.912,-10.656 2.975981,-3.07195 6.43198,-5.51995 10.368,-7.344 3.93597,-1.91994 8.15997,-2.87994 12.672,-2.88 2.68796,6e-5 5.56796,0.48006 8.64,1.44 3.07195,0.96006 5.90395,2.54406 8.496,4.752 2.68794,2.11205 4.89594,4.94405 6.624,8.496 1.82394,3.55204 2.73593,7.96804 2.736,13.248 l -44.352,0" />
      </g>
      <path
         inkscape:connector-curvature="0"
         id="path3074"
         d="m -13.637063,375.6294 c 0,0 172.736093,24.24366 246.477223,75.76144 0,0 95.96449,-64.64976 289.91378,-81.82235 l 2.02031,22.22335 c 0,0 -191.92898,7.07107 -287.89348,72.73099 0,0 -136.37059,-80.81221 -319.208203,-85.86297 z"
         style="fill:#ffffff;stroke:none;display:inline" />
    </g>
  </g>
</svg>
